<svg width="192" height="192" viewBox="0 0 192 192" xmlns="http://www.w3.org/2000/svg">
  <defs>
    <linearGradient id="bg192" x1="0%" y1="0%" x2="100%" y2="100%">
      <stop offset="0%" style="stop-color:#4F46E5;stop-opacity:1" />
      <stop offset="100%" style="stop-color:#7C3AED;stop-opacity:1" />
    </linearGradient>
    <linearGradient id="icon192" x1="0%" y1="0%" x2="100%" y2="100%">
      <stop offset="0%" style="stop-color:#FFFFFF;stop-opacity:1" />
      <stop offset="100%" style="stop-color:#F3F4F6;stop-opacity:1" />
    </linearGradient>
  </defs>

  <circle cx="96" cy="96" r="96" fill="url(#bg192)" />

  <g transform="translate(48, 48)">
    <rect x="24" y="16" width="64" height="80" rx="4" ry="4" fill="url(#icon192)" />
    <rect x="30" y="32" width="52" height="2" rx="1" fill="#E5E7EB" />
    <rect x="30" y="44" width="44" height="2" rx="1" fill="#E5E7EB" />
    <rect x="30" y="56" width="36" height="2" rx="1" fill="#E5E7EB" />
    <rect x="30" y="68" width="48" height="2" rx="1" fill="#E5E7EB" />

    <g transform="translate(44, 22)">
      <rect x="4" y="12" width="16" height="10" rx="2" fill="#4F46E5" />
      <circle cx="14" cy="8" r="3" fill="#4F46E5" />
      <circle cx="14" cy="8" r="2" fill="#FFFFFF" />
      <circle cx="14" cy="8" r="1" fill="#4F46E5" />
      <path d="M 4 12 L 4 8 L 6 8" stroke="#7C3AED" stroke-width="1" fill="none" />
      <rect x="0" y="0" width="24" height="16" rx="2" fill="none" stroke="#7C3AED" stroke-width="1" />
      <circle cx="6" cy="6" r="1" fill="#7C3AED" />
      <path d="M 14 4 L 18 8 L 14 12 L 12 10" fill="#7C3AED" />
    </g>
  </g>

  <g transform="translate(128, 161)">
    <rect x="0" y="0" width="16" height="8" rx="4" fill="rgba(255,255,255,0.9)" />
    <text x="8" y="5" text-anchor="middle" font-size="5" font-weight="bold" fill="#4F46E5">PDF</text>
  </g>
</svg>
