<svg width="96" height="96" viewBox="0 0 96 96" xmlns="http://www.w3.org/2000/svg">
  <defs>
    <linearGradient id="bg96" x1="0%" y1="0%" x2="100%" y2="100%">
      <stop offset="0%" style="stop-color:#4F46E5;stop-opacity:1" />
      <stop offset="100%" style="stop-color:#7C3AED;stop-opacity:1" />
    </linearGradient>
    <linearGradient id="icon96" x1="0%" y1="0%" x2="100%" y2="100%">
      <stop offset="0%" style="stop-color:#FFFFFF;stop-opacity:1" />
      <stop offset="100%" style="stop-color:#F3F4F6;stop-opacity:1" />
    </linearGradient>
  </defs>

  <circle cx="48" cy="48" r="48" fill="url(#bg96)" />

  <g transform="translate(24, 24)">
    <rect x="12" y="8" width="32" height="40" rx="2" ry="2" fill="url(#icon96)" />
    <rect x="15" y="16" width="26" height="1" rx="0.5" fill="#E5E7EB" />
    <rect x="15" y="22" width="22" height="1" rx="0.5" fill="#E5E7EB" />
    <rect x="15" y="28" width="18" height="1" rx="0.5" fill="#E5E7EB" />
    <rect x="15" y="34" width="24" height="1" rx="0.5" fill="#E5E7EB" />

    <g transform="translate(22, 11)">
      <rect x="2" y="6" width="8" height="5" rx="1" fill="#4F46E5" />
      <circle cx="7" cy="4" r="1.5" fill="#4F46E5" />
      <circle cx="7" cy="4" r="1" fill="#FFFFFF" />
      <circle cx="7" cy="4" r="0.5" fill="#4F46E5" />
      <path d="M 2 6 L 2 4 L 3 4" stroke="#7C3AED" stroke-width="0.5" fill="none" />
      <rect x="0" y="0" width="12" height="8" rx="1" fill="none" stroke="#7C3AED" stroke-width="0.5" />
      <circle cx="3" cy="3" r="0.5" fill="#7C3AED" />
      <path d="M 7 2 L 9 4 L 7 6 L 6 5" fill="#7C3AED" />
    </g>
  </g>

  <g transform="translate(64, 81)">
    <rect x="0" y="0" width="8" height="4" rx="2" fill="rgba(255,255,255,0.9)" />
    <text x="4" y="2.5" text-anchor="middle" font-size="2.5" font-weight="bold" fill="#4F46E5">PDF</text>
  </g>
</svg>
