<svg width="48" height="48" viewBox="0 0 48 48" xmlns="http://www.w3.org/2000/svg">
  <defs>
    <linearGradient id="bg48" x1="0%" y1="0%" x2="100%" y2="100%">
      <stop offset="0%" style="stop-color:#4F46E5;stop-opacity:1" />
      <stop offset="100%" style="stop-color:#7C3AED;stop-opacity:1" />
    </linearGradient>
    <linearGradient id="icon48" x1="0%" y1="0%" x2="100%" y2="100%">
      <stop offset="0%" style="stop-color:#FFFFFF;stop-opacity:1" />
      <stop offset="100%" style="stop-color:#F3F4F6;stop-opacity:1" />
    </linearGradient>
  </defs>

  <circle cx="24" cy="24" r="24" fill="url(#bg48)" />

  <g transform="translate(12, 12)">
    <rect x="6" y="4" width="16" height="20" rx="1" ry="1" fill="url(#icon48)" />
    <rect x="7" y="8" width="14" height="0.5" rx="0.25" fill="#E5E7EB" />
    <rect x="7" y="12" width="12" height="0.5" rx="0.25" fill="#E5E7EB" />
    <rect x="7" y="16" width="10" height="0.5" rx="0.25" fill="#E5E7EB" />

    <g transform="translate(11, 5)">
      <rect x="1" y="3" width="4" height="3" rx="0.75" fill="#4F46E5" />
      <circle cx="3.5" cy="2" r="0.75" fill="#4F46E5" />
      <circle cx="3.5" cy="2" r="0.25" fill="#FFFFFF" />
      <circle cx="3.5" cy="2" r="0.25" fill="#4F46E5" />
      <path d="M 1 3 L 1 2 L 1.5 2" stroke="#7C3AED" stroke-width="0.25" fill="none" />
      <rect x="0" y="0" width="6" height="4" rx="0.5" fill="none" stroke="#7C3AED" stroke-width="0.25" />
      <circle cx="1.5" cy="1.5" r="0.25" fill="#7C3AED" />
      <path d="M 3.5 1 L 5 2 L 3.5 3 L 3 2.5" fill="#7C3AED" />
    </g>
  </g>

  <g transform="translate(32, 40)">
    <rect x="0" y="0" width="4" height="2" rx="1" fill="rgba(255,255,255,0.9)" />
    <text x="2" y="1.25" text-anchor="middle" font-size="1.5" font-weight="bold" fill="#4F46E5">PDF</text>
  </g>
</svg>
